<mxfile host="Electron" modified="2022-12-02T12:36:46.984Z" agent="5.0 (Windows NT 10.0; Win64; x64) AppleWebKit/537.36 (KHTML, like Gecko) draw.io/16.5.1 Chrome/96.0.4664.110 Electron/16.0.7 Safari/537.36" etag="tyCJkzdm_0C1pIqLaEwK" compressed="false" version="16.5.1" type="device">
  <diagram id="liyBdKQC7n4qaKOMsMSS" name="第 1 页">
    <mxGraphModel dx="8907" dy="6029" grid="1" gridSize="10" guides="1" tooltips="1" connect="1" arrows="1" fold="1" page="1" pageScale="1" pageWidth="827" pageHeight="1169" math="0" shadow="0">
      <root>
        <mxCell id="0" />
        <mxCell id="1" parent="0" />
        <mxCell id="MGOL-zu5bAfadH5uUNT9-44" value="" style="rounded=0;whiteSpace=wrap;html=1;fontFamily=Courier New;fontColor=#000000;strokeWidth=1;fillColor=#FFFFFF;" parent="1" vertex="1">
          <mxGeometry x="-160" y="1880" width="900" height="370" as="geometry" />
        </mxCell>
        <mxCell id="MGOL-zu5bAfadH5uUNT9-37" value="" style="rounded=0;whiteSpace=wrap;html=1;fontFamily=Courier New;fontColor=#000000;strokeWidth=1;fillColor=#FFFFFF;" parent="1" vertex="1">
          <mxGeometry x="-1060" y="1880" width="900" height="370" as="geometry" />
        </mxCell>
        <mxCell id="MGOL-zu5bAfadH5uUNT9-32" value="" style="rounded=0;whiteSpace=wrap;html=1;fontFamily=Courier New;fontColor=#000000;strokeWidth=1;fillColor=#FFFFFF;" parent="1" vertex="1">
          <mxGeometry x="-1060" y="-280" width="900" height="90" as="geometry" />
        </mxCell>
        <mxCell id="MGOL-zu5bAfadH5uUNT9-29" value="" style="rounded=0;whiteSpace=wrap;html=1;fontFamily=Courier New;fontColor=#000000;strokeWidth=1;fillColor=#B9E0A5;" parent="1" vertex="1">
          <mxGeometry x="-1060" y="-370" width="900" height="90" as="geometry" />
        </mxCell>
        <mxCell id="MGOL-zu5bAfadH5uUNT9-23" value="" style="rounded=0;whiteSpace=wrap;html=1;fontFamily=Courier New;fontColor=#000000;strokeWidth=1;fillColor=#FFFFFF;" parent="1" vertex="1">
          <mxGeometry x="-1060" y="-190" width="900" height="580" as="geometry" />
        </mxCell>
        <mxCell id="MGOL-zu5bAfadH5uUNT9-22" value="&lt;p style=&quot;line-height: 1.2&quot;&gt;&lt;/p&gt;&lt;div&gt;HOST_ARCH&amp;nbsp; &amp;nbsp; &amp;nbsp; &amp;nbsp; &amp;nbsp; - Architecture of the host system. One of: ia32/intel64.&lt;/div&gt;&lt;div&gt;TARGET&amp;nbsp; &amp;nbsp; &amp;nbsp; &amp;nbsp; &amp;nbsp; &amp;nbsp; &amp;nbsp;- Architecture of the target system. This is usually the same as the host.&lt;/div&gt;&lt;div&gt;BITS&amp;nbsp; &amp;nbsp; &amp;nbsp; &amp;nbsp; &amp;nbsp; &amp;nbsp; &amp;nbsp; &amp;nbsp;- Pointer size (in bits) of this architecture. One of 32/64.&lt;/div&gt;&lt;div&gt;OBJDIR&amp;nbsp; &amp;nbsp; &amp;nbsp; &amp;nbsp; &amp;nbsp; &amp;nbsp; &amp;nbsp;- The output directory for the test rules.&lt;/div&gt;&lt;div&gt;TARGET_OS&amp;nbsp; &amp;nbsp; &amp;nbsp; &amp;nbsp; &amp;nbsp; - Operating system of the target.&lt;/div&gt;&lt;div&gt;OS_TYPE&amp;nbsp; &amp;nbsp; &amp;nbsp; &amp;nbsp; &amp;nbsp; &amp;nbsp; - One of: unix/win.&lt;/div&gt;&lt;div&gt;COMPILER&amp;nbsp; &amp;nbsp; &amp;nbsp; &amp;nbsp; &amp;nbsp; &amp;nbsp;- The compiler used to build Pin. Some source trees&#39; names depend on it. One of: gcc/icc/clang/msvc.&lt;/div&gt;&lt;div&gt;LINKER&amp;nbsp; &amp;nbsp; &amp;nbsp; &amp;nbsp; &amp;nbsp; &amp;nbsp; &amp;nbsp;- Linker.&lt;/div&gt;&lt;div&gt;ARCHIVER&amp;nbsp; &amp;nbsp; &amp;nbsp; &amp;nbsp; &amp;nbsp; &amp;nbsp;- Static library (archive) builder. Should be followed by the requested archive name.&lt;/div&gt;&lt;div&gt;ASMBLR&amp;nbsp; &amp;nbsp; &amp;nbsp; &amp;nbsp; &amp;nbsp; &amp;nbsp; &amp;nbsp;- Assembler.&lt;/div&gt;&lt;div&gt;EXE_SUFFIX&amp;nbsp; &amp;nbsp; &amp;nbsp; &amp;nbsp; &amp;nbsp;- Extension of executables (apps).&lt;/div&gt;&lt;div&gt;OBJ_SUFFIX&amp;nbsp; &amp;nbsp; &amp;nbsp; &amp;nbsp; &amp;nbsp;- Extension of an object file.&lt;/div&gt;&lt;div&gt;DLL_SUFFIX&amp;nbsp; &amp;nbsp; &amp;nbsp; &amp;nbsp; &amp;nbsp;- Extension of a shared object file (dll).&lt;/div&gt;&lt;div&gt;PINTOOL_SUFFIX&amp;nbsp; &amp;nbsp; &amp;nbsp;- Extension of a tool.&lt;/div&gt;&lt;div&gt;SATOOL_SUFFIX&amp;nbsp; &amp;nbsp; &amp;nbsp; - Extension of static analysis tools.&lt;/div&gt;&lt;div&gt;LIB_SUFFIX&amp;nbsp; &amp;nbsp; &amp;nbsp; &amp;nbsp; &amp;nbsp;- Extension of a static library (archive).&lt;/div&gt;&lt;div&gt;ASM_SUFFIX&amp;nbsp; &amp;nbsp; &amp;nbsp; &amp;nbsp; &amp;nbsp;- Extension of asm source files (common convention).&lt;/div&gt;&lt;div&gt;DLL_PREFIX&amp;nbsp; &amp;nbsp; &amp;nbsp; &amp;nbsp; &amp;nbsp;- Prefix to a shared object&#39;s name. This is only relevant on Unix platforms. The prefix is &quot;lib&quot; by&lt;/div&gt;&lt;div&gt;&amp;nbsp; &amp;nbsp; &amp;nbsp; &amp;nbsp; &amp;nbsp; &amp;nbsp; &amp;nbsp; &amp;nbsp; &amp;nbsp; &amp;nbsp; &amp;nbsp;common convention.&lt;/div&gt;&lt;div&gt;DLL_LINKAGE_SUFFIX - When linking an executable to a DLL, gcc/clang expect the .so file, and VS expects the .lib file.&lt;/div&gt;&lt;div&gt;PYTHON&amp;nbsp; &amp;nbsp; &amp;nbsp; &amp;nbsp; &amp;nbsp; &amp;nbsp; &amp;nbsp;- Define the python executable.&lt;/div&gt;&lt;div&gt;DIFF&amp;nbsp; &amp;nbsp; &amp;nbsp; &amp;nbsp; &amp;nbsp; &amp;nbsp; &amp;nbsp; &amp;nbsp;- Diff application.&lt;/div&gt;&lt;div&gt;CMP&amp;nbsp; &amp;nbsp; &amp;nbsp; &amp;nbsp; &amp;nbsp; &amp;nbsp; &amp;nbsp; &amp;nbsp; - Compare application used by the default test rule.&lt;/div&gt;&lt;div&gt;CMD&amp;nbsp; &amp;nbsp; &amp;nbsp; &amp;nbsp; &amp;nbsp; &amp;nbsp; &amp;nbsp; &amp;nbsp; - Creates a temporary shell for the following command. Relevant on Windows only.&lt;/div&gt;&lt;div&gt;GREP&amp;nbsp; &amp;nbsp; &amp;nbsp; &amp;nbsp; &amp;nbsp; &amp;nbsp; &amp;nbsp; &amp;nbsp;- The grep command.&lt;/div&gt;&lt;div&gt;QGREP&amp;nbsp; &amp;nbsp; &amp;nbsp; &amp;nbsp; &amp;nbsp; &amp;nbsp; &amp;nbsp; - Quiet grep command - output is suppressed.&lt;/div&gt;&lt;div&gt;CGREP&amp;nbsp; &amp;nbsp; &amp;nbsp; &amp;nbsp; &amp;nbsp; &amp;nbsp; &amp;nbsp; - Count number of matching lines.&lt;/div&gt;&lt;div&gt;EGREP&amp;nbsp; &amp;nbsp; &amp;nbsp; &amp;nbsp; &amp;nbsp; &amp;nbsp; &amp;nbsp; - Use the grep command with regex support.&lt;/div&gt;&lt;div&gt;LINECOUNT&amp;nbsp; &amp;nbsp; &amp;nbsp; &amp;nbsp; &amp;nbsp; - Count the number of lines in the given file.&lt;/div&gt;&lt;div&gt;BASHTEST&amp;nbsp; &amp;nbsp; &amp;nbsp; &amp;nbsp; &amp;nbsp; &amp;nbsp;- Equivalent of the bash &quot;test&quot; command.&lt;/div&gt;&lt;div&gt;STRIP&amp;nbsp; &amp;nbsp; &amp;nbsp; &amp;nbsp; &amp;nbsp; &amp;nbsp; &amp;nbsp; - Equivalent of the &quot;strip&quot; program.&lt;/div&gt;&lt;div&gt;SED&amp;nbsp; &amp;nbsp; &amp;nbsp; &amp;nbsp; &amp;nbsp; &amp;nbsp; &amp;nbsp; &amp;nbsp; - Equivalent of the &quot;sed&quot; program.&lt;/div&gt;&lt;div&gt;EXPR&amp;nbsp; &amp;nbsp; &amp;nbsp; &amp;nbsp; &amp;nbsp; &amp;nbsp; &amp;nbsp; &amp;nbsp;- Equivalent of the &quot;expr&quot; program.&lt;/div&gt;&lt;div&gt;AWK&amp;nbsp; &amp;nbsp; &amp;nbsp; &amp;nbsp; &amp;nbsp; &amp;nbsp; &amp;nbsp; &amp;nbsp; - Equivalent of the &quot;awk&quot; program.&lt;/div&gt;&lt;div&gt;SET_DLL_PATH&amp;nbsp; &amp;nbsp; &amp;nbsp; &amp;nbsp;- Exports the LD_LIBRARY_PATH to point to OBJDIR. Relevant on Unix only.&lt;/div&gt;&lt;div&gt;SUDO&amp;nbsp; &amp;nbsp; &amp;nbsp; &amp;nbsp; &amp;nbsp; &amp;nbsp; &amp;nbsp; &amp;nbsp;- Sudo utiliy in Unix&lt;/div&gt;&lt;div&gt;CHOWN&amp;nbsp; &amp;nbsp; &amp;nbsp; &amp;nbsp; &amp;nbsp; &amp;nbsp; &amp;nbsp; - Chown utility in Unix&lt;/div&gt;&lt;div&gt;CHMOD&amp;nbsp; &amp;nbsp; &amp;nbsp; &amp;nbsp; &amp;nbsp; &amp;nbsp; &amp;nbsp; - Chmod utility in Unix&lt;/div&gt;&lt;p&gt;&lt;/p&gt;" style="text;html=1;strokeColor=none;fillColor=none;align=left;verticalAlign=middle;whiteSpace=wrap;rounded=0;fontFamily=Courier New;fontColor=#000000;" parent="1" vertex="1">
          <mxGeometry x="-1040" y="-180" width="870" height="560" as="geometry" />
        </mxCell>
        <mxCell id="MGOL-zu5bAfadH5uUNT9-24" value="None" style="rounded=0;whiteSpace=wrap;html=1;fontFamily=Courier New;fontColor=#000000;strokeWidth=1;fillColor=#FFFFFF;" parent="1" vertex="1">
          <mxGeometry x="-160" y="-190" width="900" height="580" as="geometry" />
        </mxCell>
        <mxCell id="MGOL-zu5bAfadH5uUNT9-26" value="" style="rounded=0;whiteSpace=wrap;html=1;fontFamily=Courier New;fontColor=#000000;strokeWidth=1;fillColor=#FFFFFF;" parent="1" vertex="1">
          <mxGeometry x="-1060" y="390" width="900" height="1490" as="geometry" />
        </mxCell>
        <mxCell id="MGOL-zu5bAfadH5uUNT9-27" value="" style="rounded=0;whiteSpace=wrap;html=1;fontFamily=Courier New;fontColor=#000000;strokeWidth=1;fillColor=#B9E0A5;" parent="1" vertex="1">
          <mxGeometry x="-160" y="-370" width="900" height="90" as="geometry" />
        </mxCell>
        <mxCell id="MGOL-zu5bAfadH5uUNT9-31" value="&lt;div&gt;KIT&amp;nbsp; &amp;nbsp; &amp;nbsp; &amp;nbsp; &amp;nbsp; &amp;nbsp; &amp;nbsp; &amp;nbsp; - generated by the kit builder&lt;/div&gt;&lt;div&gt;COMPILER&amp;nbsp; &amp;nbsp; &amp;nbsp; &amp;nbsp; &amp;nbsp; &amp;nbsp;- generated by the kit builder&lt;/div&gt;&lt;div&gt;TARGET_OS&amp;nbsp; &amp;nbsp; &amp;nbsp; &amp;nbsp; &amp;nbsp; - generated by the kit builder&lt;/div&gt;&lt;div&gt;NEWCPP&amp;nbsp; &amp;nbsp; &amp;nbsp; &amp;nbsp; &amp;nbsp; &amp;nbsp; &amp;nbsp;- generated by the kit builder&lt;/div&gt;" style="text;html=1;strokeColor=none;fillColor=none;align=center;verticalAlign=middle;whiteSpace=wrap;rounded=0;fontFamily=Courier New;fontColor=#000000;" parent="1" vertex="1">
          <mxGeometry x="-1050" y="-270" width="380" height="70" as="geometry" />
        </mxCell>
        <mxCell id="MGOL-zu5bAfadH5uUNT9-33" value="None" style="rounded=0;whiteSpace=wrap;html=1;fontFamily=Courier New;fontColor=#000000;strokeWidth=1;fillColor=#FFFFFF;" parent="1" vertex="1">
          <mxGeometry x="-160" y="-280" width="900" height="90" as="geometry" />
        </mxCell>
        <mxCell id="MGOL-zu5bAfadH5uUNT9-35" value="&lt;div&gt;## Output control&lt;/div&gt;&lt;div&gt;&lt;br&gt;&lt;/div&gt;&lt;div&gt;COMP_OBJ&amp;nbsp; &amp;nbsp; &amp;nbsp; &amp;nbsp; &amp;nbsp; &amp;nbsp; &amp;nbsp; - Flags for compiling an object file. Should be followed by the requested output object&#39;s name.&lt;/div&gt;&lt;div&gt;COMP_EXE&amp;nbsp; &amp;nbsp; &amp;nbsp; &amp;nbsp; &amp;nbsp; &amp;nbsp; &amp;nbsp; - Flags for building an executable from source and object files. Should be followed by the requested&lt;/div&gt;&lt;div&gt;&amp;nbsp; &amp;nbsp; &amp;nbsp; &amp;nbsp; &amp;nbsp; &amp;nbsp; &amp;nbsp; &amp;nbsp; &amp;nbsp; &amp;nbsp; &amp;nbsp; &amp;nbsp; output executable&#39;s name.&lt;/div&gt;&lt;div&gt;LINK_EXE&amp;nbsp; &amp;nbsp; &amp;nbsp; &amp;nbsp; &amp;nbsp; &amp;nbsp; &amp;nbsp; - Flags for linking an executable from object files. Should be followed by the requested output&lt;/div&gt;&lt;div&gt;&amp;nbsp; &amp;nbsp; &amp;nbsp; &amp;nbsp; &amp;nbsp; &amp;nbsp; &amp;nbsp; &amp;nbsp; &amp;nbsp; &amp;nbsp; &amp;nbsp; &amp;nbsp; executable&#39;s name.&lt;/div&gt;&lt;div&gt;&lt;br&gt;&lt;/div&gt;&lt;div&gt;## Special compilation/linkage directives&lt;/div&gt;&lt;div&gt;&lt;br&gt;&lt;/div&gt;&lt;div&gt;STATIC&amp;nbsp; &amp;nbsp; &amp;nbsp; &amp;nbsp; &amp;nbsp; &amp;nbsp; &amp;nbsp; &amp;nbsp; - Linker directive for building a static executable.&lt;/div&gt;&lt;div&gt;NO_RANDOM&amp;nbsp; &amp;nbsp; &amp;nbsp; &amp;nbsp; &amp;nbsp; &amp;nbsp; &amp;nbsp;- Linker directive which disables voluntary image relocation. Relevant only on Windows since VS2010.&lt;/div&gt;&lt;div&gt;PIC&amp;nbsp; &amp;nbsp; &amp;nbsp; &amp;nbsp; &amp;nbsp; &amp;nbsp; &amp;nbsp; &amp;nbsp; &amp;nbsp; &amp;nbsp;- Compiler directive for generating position independent code. Irrelevant on Windows.&lt;/div&gt;&lt;div&gt;NO_PIC&amp;nbsp; &amp;nbsp; &amp;nbsp; &amp;nbsp; &amp;nbsp; &amp;nbsp; &amp;nbsp; &amp;nbsp; - Compiler directive for generating a non-position-independent code. Irrelevant on Windows.&lt;/div&gt;&lt;div&gt;PIE&amp;nbsp; &amp;nbsp; &amp;nbsp; &amp;nbsp; &amp;nbsp; &amp;nbsp; &amp;nbsp; &amp;nbsp; &amp;nbsp; &amp;nbsp;- Linker directive for generating a position independent executable. Irrelevant for Windows.&lt;/div&gt;&lt;div&gt;NO_PIE&amp;nbsp; &amp;nbsp; &amp;nbsp; &amp;nbsp; &amp;nbsp; &amp;nbsp; &amp;nbsp; &amp;nbsp; - Linker directive for building a non-position-independent execuatble. Irrelevant on Windows.&lt;/div&gt;&lt;div&gt;LDFLAGS_DEFAULT_NO_PIE- Linker directive for building a non-position-independent execuatble, or empty string&lt;/div&gt;&lt;div&gt;&amp;nbsp; &amp;nbsp; &amp;nbsp; &amp;nbsp; &amp;nbsp; &amp;nbsp; &amp;nbsp; &amp;nbsp; &amp;nbsp; &amp;nbsp; &amp;nbsp; &amp;nbsp; for linkers that build non-position-independent execuatble by default.&lt;/div&gt;&lt;div&gt;ATTACH&amp;nbsp; &amp;nbsp; &amp;nbsp; &amp;nbsp; &amp;nbsp; &amp;nbsp; &amp;nbsp; &amp;nbsp; - Perform tests that require Pin attach feature. Relevant only on Linux.&lt;/div&gt;&lt;div&gt;&amp;nbsp; &amp;nbsp; &amp;nbsp; &amp;nbsp; &amp;nbsp; &amp;nbsp; &amp;nbsp; &amp;nbsp; &amp;nbsp; &amp;nbsp; &amp;nbsp; &amp;nbsp; Unless a value is provided by the user, this option&#39;s value is auto-detected.&lt;/div&gt;&lt;div&gt;SSE2&amp;nbsp; &amp;nbsp; &amp;nbsp; &amp;nbsp; &amp;nbsp; &amp;nbsp; &amp;nbsp; &amp;nbsp; &amp;nbsp; - Compiler directive for generating sse2 instructions.&lt;/div&gt;&lt;div&gt;FP387&amp;nbsp; &amp;nbsp; &amp;nbsp; &amp;nbsp; &amp;nbsp; &amp;nbsp; &amp;nbsp; &amp;nbsp; &amp;nbsp;- Compiler directive for generating x87 legacy fp code.&lt;/div&gt;&lt;div&gt;ASMCPP&amp;nbsp; &amp;nbsp; &amp;nbsp; &amp;nbsp; &amp;nbsp; &amp;nbsp; &amp;nbsp; &amp;nbsp; - Specifies that the following files&#39; language is assembly with embedded c++. It is included in&lt;/div&gt;&lt;div&gt;&amp;nbsp; &amp;nbsp; &amp;nbsp; &amp;nbsp; &amp;nbsp; &amp;nbsp; &amp;nbsp; &amp;nbsp; &amp;nbsp; &amp;nbsp; &amp;nbsp; &amp;nbsp; ASM_FLAGS (see below). Relevant on Unix platforms.&lt;/div&gt;&lt;div&gt;NO_STDLIBS&amp;nbsp; &amp;nbsp; &amp;nbsp; &amp;nbsp; &amp;nbsp; &amp;nbsp; - Do not link with any of the standard libraries.&lt;/div&gt;&lt;div&gt;EXPORT&amp;nbsp; &amp;nbsp; &amp;nbsp; &amp;nbsp; &amp;nbsp; &amp;nbsp; &amp;nbsp; &amp;nbsp; - A function that creates a directive to export a symbol. Relevant only on windows.&lt;/div&gt;&lt;div&gt;&lt;br&gt;&lt;/div&gt;&lt;div&gt;## Include paths&lt;/div&gt;&lt;div&gt;&lt;br&gt;&lt;/div&gt;&lt;div&gt;COMPONENT_INCLUDES&amp;nbsp; &amp;nbsp; - Include paths for additional Pin components. This is added to the tools&#39; build rules automatically.&lt;/div&gt;&lt;div&gt;&lt;br&gt;&lt;/div&gt;&lt;div&gt;## Library paths&lt;/div&gt;&lt;div&gt;&lt;br&gt;&lt;/div&gt;&lt;div&gt;APP_LPATHS&amp;nbsp; &amp;nbsp; &amp;nbsp; &amp;nbsp; &amp;nbsp; &amp;nbsp; - Defines the locations of the additional Pin components.&lt;/div&gt;&lt;div&gt;TOOL_LPATHS&amp;nbsp; &amp;nbsp; &amp;nbsp; &amp;nbsp; &amp;nbsp; &amp;nbsp;- Defines the locations of the shared libraries needed to link a tool.&lt;/div&gt;&lt;div&gt;SATOOL_LPATHS&amp;nbsp; &amp;nbsp; &amp;nbsp; &amp;nbsp; &amp;nbsp;- Defines the locations of the shared libraries needed to link a static analysis tool.&lt;/div&gt;&lt;div&gt;CXX_LPATHS&amp;nbsp; &amp;nbsp; &amp;nbsp; &amp;nbsp; &amp;nbsp; &amp;nbsp; - Defines the locations of c++-specific shared libraries.&lt;/div&gt;&lt;div&gt;&lt;br&gt;&lt;/div&gt;&lt;div&gt;## Libraries to link&lt;/div&gt;&lt;div&gt;&lt;br&gt;&lt;/div&gt;&lt;div&gt;APP_LIBS&amp;nbsp; &amp;nbsp; &amp;nbsp; &amp;nbsp; &amp;nbsp; &amp;nbsp; &amp;nbsp; - Defines some shared objects that may be needed by an application. On Unix platforms this includes&lt;/div&gt;&lt;div&gt;&amp;nbsp; &amp;nbsp; &amp;nbsp; &amp;nbsp; &amp;nbsp; &amp;nbsp; &amp;nbsp; &amp;nbsp; &amp;nbsp; &amp;nbsp; &amp;nbsp; &amp;nbsp; the pthread library.&lt;/div&gt;&lt;div&gt;DL_LIB&amp;nbsp; &amp;nbsp; &amp;nbsp; &amp;nbsp; &amp;nbsp; &amp;nbsp; &amp;nbsp; &amp;nbsp; - This defines the library which implements dynamic loading APIs (dl/thr). Relevant only on Unix.&lt;/div&gt;&lt;div&gt;APP_LIB_ATOMIC&amp;nbsp; &amp;nbsp; &amp;nbsp; &amp;nbsp; - Link the application with Pin&#39;s atomic library. To use this, one must add $(COMPONENT_INCLUDES) to&lt;/div&gt;&lt;div&gt;&amp;nbsp; &amp;nbsp; &amp;nbsp; &amp;nbsp; &amp;nbsp; &amp;nbsp; &amp;nbsp; &amp;nbsp; &amp;nbsp; &amp;nbsp; &amp;nbsp; &amp;nbsp; the compilation rules and $(APP_LPATHS) to the link rule.&lt;/div&gt;&lt;div&gt;APP_LIB_XED&amp;nbsp; &amp;nbsp; &amp;nbsp; &amp;nbsp; &amp;nbsp; &amp;nbsp;- Link the application with Xed. To use this, one must add $(COMPONENT_INCLUDES) to the compilation&lt;/div&gt;&lt;div&gt;&amp;nbsp; &amp;nbsp; &amp;nbsp; &amp;nbsp; &amp;nbsp; &amp;nbsp; &amp;nbsp; &amp;nbsp; &amp;nbsp; &amp;nbsp; &amp;nbsp; &amp;nbsp; rules and $(APP_LPATHS) to the link rule.&lt;/div&gt;&lt;div&gt;TOOL_LIBS&amp;nbsp; &amp;nbsp; &amp;nbsp; &amp;nbsp; &amp;nbsp; &amp;nbsp; &amp;nbsp;- Defines the libraries needed by the tool.&lt;/div&gt;&lt;div&gt;SATOOL_LIBS&amp;nbsp; &amp;nbsp; &amp;nbsp; &amp;nbsp; &amp;nbsp; &amp;nbsp;- Defines the libraries needed by static analysis tools.&lt;/div&gt;&lt;div&gt;CXX_LIBS&amp;nbsp; &amp;nbsp; &amp;nbsp; &amp;nbsp; &amp;nbsp; &amp;nbsp; &amp;nbsp; - Defines c++-specific libraries needed by some applications and tools.&lt;/div&gt;&lt;div&gt;&lt;br&gt;&lt;/div&gt;&lt;div&gt;## Compiler flags&lt;/div&gt;&lt;div&gt;&lt;br&gt;&lt;/div&gt;&lt;div&gt;APP_CXXFLAGS&amp;nbsp; &amp;nbsp; &amp;nbsp; &amp;nbsp; &amp;nbsp; - Application&#39;s / object&#39;s compiler options. This may include optimization and debugging flags&lt;/div&gt;&lt;div&gt;&amp;nbsp; &amp;nbsp; &amp;nbsp; &amp;nbsp; &amp;nbsp; &amp;nbsp; &amp;nbsp; &amp;nbsp; &amp;nbsp; &amp;nbsp; &amp;nbsp; &amp;nbsp; depending on whether DEBUG=1 was specified.&lt;/div&gt;&lt;div&gt;APP_CXXFLAGS_NOOPT&amp;nbsp; &amp;nbsp; - Application&#39;s / object&#39;s compiler options with no optimizations regardless of the DEBUG flag.&lt;/div&gt;&lt;div&gt;ASM_FLAGS&amp;nbsp; &amp;nbsp; &amp;nbsp; &amp;nbsp; &amp;nbsp; &amp;nbsp; &amp;nbsp;- Application&#39;s / object&#39;s assembler options.&lt;/div&gt;&lt;div&gt;TOOL_CXXFLAGS&amp;nbsp; &amp;nbsp; &amp;nbsp; &amp;nbsp; &amp;nbsp;- Tool&#39;s compiler options. This may include optimization and debugging flags depending on whether&lt;/div&gt;&lt;div&gt;&amp;nbsp; &amp;nbsp; &amp;nbsp; &amp;nbsp; &amp;nbsp; &amp;nbsp; &amp;nbsp; &amp;nbsp; &amp;nbsp; &amp;nbsp; &amp;nbsp; &amp;nbsp; DEBUG=1 was specified.&lt;/div&gt;&lt;div&gt;SATOOL_CXXFLAGS&amp;nbsp; &amp;nbsp; &amp;nbsp; &amp;nbsp;- TOOL_CXXFLAGS for static analysis tools.&lt;/div&gt;&lt;div&gt;TOOL_CXXFLAGS_NOOPT&amp;nbsp; &amp;nbsp;- Tool&#39;s compiler options with no optimizations regardless of the DEBUG flag.&lt;/div&gt;&lt;div&gt;SATOOL_CXXFLAGS_NOOPT - TOOL_CXXFLAGS_NOOPT for static analysis tools.&lt;/div&gt;&lt;div&gt;DLL_CXXFLAGS&amp;nbsp; &amp;nbsp; &amp;nbsp; &amp;nbsp; &amp;nbsp; - Flags for compiling a dll. Comes in addition to to other compiler flags like APP_CXXFLAGS.&lt;/div&gt;&lt;div&gt;ENABLE_DEPRECATED&amp;nbsp; &amp;nbsp; &amp;nbsp;- Using this flag will suppress compiler warnings when using deprecated Pin APIs.&lt;/div&gt;&lt;div&gt;&lt;br&gt;&lt;/div&gt;&lt;div&gt;## Linker flags&lt;/div&gt;&lt;div&gt;&lt;br&gt;&lt;/div&gt;&lt;div&gt;APP_LDFLAGS&amp;nbsp; &amp;nbsp; &amp;nbsp; &amp;nbsp; &amp;nbsp; &amp;nbsp;- Application&#39;s linker options.&lt;/div&gt;&lt;div&gt;APP_LDFLAGS_NOOPT&amp;nbsp; &amp;nbsp; &amp;nbsp;- Application&#39;s linker options with no optimizations.&lt;/div&gt;&lt;div&gt;APP_LDFLAGS_LINK_ASM&amp;nbsp; - Application&#39;s linker options when linking a single object which originated from an assembly&lt;/div&gt;&lt;div&gt;&amp;nbsp; &amp;nbsp; &amp;nbsp; &amp;nbsp; &amp;nbsp; &amp;nbsp; &amp;nbsp; &amp;nbsp; &amp;nbsp; &amp;nbsp; &amp;nbsp; &amp;nbsp; source file.&lt;/div&gt;&lt;div&gt;TOOL_LDFLAGS&amp;nbsp; &amp;nbsp; &amp;nbsp; &amp;nbsp; &amp;nbsp; - Tool&#39;s linker options.&lt;/div&gt;&lt;div&gt;TOOL_LDFLAGS_NOOPT&amp;nbsp; &amp;nbsp; - Tool&#39;s linker options with no optimizations.&lt;/div&gt;&lt;div&gt;SATOOL_LDFLAGS&amp;nbsp; &amp;nbsp; &amp;nbsp; &amp;nbsp; - Static analysis tool&#39;s linker options. Relevant on Unix only.&lt;/div&gt;&lt;div&gt;SATOOL_LDFLAGS_NOOPT&amp;nbsp; - Static analysis tool&#39;s linker options with no optimizations. Relevant on Unix only.&lt;/div&gt;&lt;div&gt;DLL_LDFLAGS&amp;nbsp; &amp;nbsp; &amp;nbsp; &amp;nbsp; &amp;nbsp; &amp;nbsp;- Flags for linking a dll. Comes in addition to to other linker flags like APP_LDFLAGS.&lt;/div&gt;&lt;div&gt;&lt;br&gt;&lt;/div&gt;&lt;div&gt;## Debugging flags&lt;/div&gt;&lt;div&gt;&lt;br&gt;&lt;/div&gt;&lt;div&gt;DBG_INFO_CXX&amp;nbsp; &amp;nbsp; &amp;nbsp; &amp;nbsp; &amp;nbsp; - If DEBUG=1, this variable holds compiler flags for generating debug information. Automatically&lt;/div&gt;&lt;div&gt;&amp;nbsp; &amp;nbsp; &amp;nbsp; &amp;nbsp; &amp;nbsp; &amp;nbsp; &amp;nbsp; &amp;nbsp; &amp;nbsp; &amp;nbsp; &amp;nbsp; &amp;nbsp; included in all the compilation flags e.g. TOOL_CXXFLAGS_NOOPT, APP_CXXFLAGS, etc).&lt;/div&gt;&lt;div&gt;DBG_INFO_LD&amp;nbsp; &amp;nbsp; &amp;nbsp; &amp;nbsp; &amp;nbsp; &amp;nbsp;- Same as DBG_INFO_CXX but for linking.&lt;/div&gt;&lt;div&gt;DBG_INFO_CXX_ALWAYS&amp;nbsp; &amp;nbsp;- When this is specified in the compilation rule, debug information will be generated regardless of&lt;/div&gt;&lt;div&gt;&amp;nbsp; &amp;nbsp; &amp;nbsp; &amp;nbsp; &amp;nbsp; &amp;nbsp; &amp;nbsp; &amp;nbsp; &amp;nbsp; &amp;nbsp; &amp;nbsp; &amp;nbsp; the value of the DEBUG variable. This is currently disabled on Windows due to some issues with&lt;/div&gt;&lt;div&gt;&amp;nbsp; &amp;nbsp; &amp;nbsp; &amp;nbsp; &amp;nbsp; &amp;nbsp; &amp;nbsp; &amp;nbsp; &amp;nbsp; &amp;nbsp; &amp;nbsp; &amp;nbsp; cygwin/ssh.&lt;/div&gt;&lt;div&gt;DBG_INFO_LD_ALWAYS&amp;nbsp; &amp;nbsp; - Same as DBG_INFO_CXX_ALWAYS but for linking.&lt;/div&gt;&lt;div&gt;DWARF4&amp;nbsp; &amp;nbsp; &amp;nbsp; &amp;nbsp; &amp;nbsp; &amp;nbsp; &amp;nbsp; &amp;nbsp; - Produce debugging information in DWARF version 4 format. Relevant only on Linux.&lt;/div&gt;&lt;div&gt;&lt;br&gt;&lt;/div&gt;&lt;div&gt;## General&lt;/div&gt;&lt;div&gt;&lt;br&gt;&lt;/div&gt;&lt;div&gt;PIN_ROOT&amp;nbsp; &amp;nbsp; &amp;nbsp; &amp;nbsp; &amp;nbsp; &amp;nbsp; &amp;nbsp; - Path to the Pin root directory.&lt;/div&gt;&lt;div&gt;TOOLS_ROOT&amp;nbsp; &amp;nbsp; &amp;nbsp; &amp;nbsp; &amp;nbsp; &amp;nbsp; - Path to the Pin tools root directory.&lt;/div&gt;&lt;div&gt;PIN&amp;nbsp; &amp;nbsp; &amp;nbsp; &amp;nbsp; &amp;nbsp; &amp;nbsp; &amp;nbsp; &amp;nbsp; &amp;nbsp; &amp;nbsp;- Pin launcher. When PIN_TESTING=1, this may be followed by some additional flags.&lt;/div&gt;&lt;div&gt;PINBIN&amp;nbsp; &amp;nbsp; &amp;nbsp; &amp;nbsp; &amp;nbsp; &amp;nbsp; &amp;nbsp; &amp;nbsp; - The architecture-specific Pin executable. Depends on the value of the TARGET variable.&lt;/div&gt;&lt;div&gt;PIN32&amp;nbsp; &amp;nbsp; &amp;nbsp; &amp;nbsp; &amp;nbsp; &amp;nbsp; &amp;nbsp; &amp;nbsp; &amp;nbsp;- The 32 bit Pin executable.&lt;/div&gt;&lt;div&gt;PIN64&amp;nbsp; &amp;nbsp; &amp;nbsp; &amp;nbsp; &amp;nbsp; &amp;nbsp; &amp;nbsp; &amp;nbsp; &amp;nbsp;- The 32 bit Pin executable.&lt;/div&gt;&lt;div&gt;PIN_TESTFLAGS&amp;nbsp; &amp;nbsp; &amp;nbsp; &amp;nbsp; &amp;nbsp;- Additional arguments to Pin when PIN_TESTING=1.&lt;/div&gt;&lt;div&gt;MAKE_TESTFLAGS&amp;nbsp; &amp;nbsp; &amp;nbsp; &amp;nbsp; - Additional arguments passed to &quot;make&quot; when running the .test recipes. See makefile.default.rules&lt;/div&gt;&lt;div&gt;&amp;nbsp; &amp;nbsp; &amp;nbsp; &amp;nbsp; &amp;nbsp; &amp;nbsp; &amp;nbsp; &amp;nbsp; &amp;nbsp; &amp;nbsp; &amp;nbsp; &amp;nbsp; for usage.&lt;/div&gt;&lt;div&gt;INSTALLER&amp;nbsp; &amp;nbsp; &amp;nbsp; &amp;nbsp; &amp;nbsp; &amp;nbsp; &amp;nbsp;- Default installer (see details at the beginning of this files).&lt;/div&gt;&lt;div&gt;INSTALL_FLAGS&amp;nbsp; &amp;nbsp; &amp;nbsp; &amp;nbsp; &amp;nbsp;- Default installer flags (see details at the beginning of this files).&lt;/div&gt;" style="text;html=1;strokeColor=none;fillColor=none;align=left;verticalAlign=middle;whiteSpace=wrap;rounded=0;fontFamily=Courier New;fontColor=#000000;" parent="1" vertex="1">
          <mxGeometry x="-1050" y="400" width="910" height="1470" as="geometry" />
        </mxCell>
        <mxCell id="MGOL-zu5bAfadH5uUNT9-36" value="&lt;div&gt;APP_CC&amp;nbsp; &amp;nbsp; &amp;nbsp; &amp;nbsp; &amp;nbsp; &amp;nbsp; &amp;nbsp; &amp;nbsp; - The applications&#39; c compiler. This enables compiling tools and apps with different compilers.&lt;/div&gt;&lt;div&gt;APP_CXX&amp;nbsp; &amp;nbsp; &amp;nbsp; &amp;nbsp; &amp;nbsp; &amp;nbsp; &amp;nbsp; &amp;nbsp;- The applications&#39; c++ compiler. This enables compiling tools and apps with different compilers.&lt;/div&gt;&lt;div&gt;TESTAPP&amp;nbsp; &amp;nbsp; &amp;nbsp; &amp;nbsp; &amp;nbsp; &amp;nbsp; &amp;nbsp; &amp;nbsp;- Test application used in the default test rule.&lt;/div&gt;&lt;div&gt;HELLO_APP&amp;nbsp; &amp;nbsp; &amp;nbsp; &amp;nbsp; &amp;nbsp; &amp;nbsp; &amp;nbsp;- Hello world application which is used by several tests.&lt;/div&gt;&lt;div&gt;HELLO_APP_DBG_INFO&amp;nbsp; &amp;nbsp; - Hello world application&#39;s debug info, to be used with -dwarf_file. Relevant on Unix only.&amp;nbsp;&lt;/div&gt;&lt;div&gt;HELLO_APP_DWARF4&amp;nbsp; &amp;nbsp; &amp;nbsp; - Hello world application which is compiled with dwarf4.&lt;/div&gt;&lt;div&gt;DISABLE_ASLR&amp;nbsp; &amp;nbsp; &amp;nbsp; &amp;nbsp; &amp;nbsp; - Program that executes another program with ASLR disabled.&lt;/div&gt;&lt;div&gt;ATTACH_LAUNCHER&amp;nbsp; &amp;nbsp; &amp;nbsp; &amp;nbsp;- Generic utility for running an application and attaching Pin to it.&lt;/div&gt;&lt;div&gt;THREAD_APP&amp;nbsp; &amp;nbsp; &amp;nbsp; &amp;nbsp; &amp;nbsp; &amp;nbsp; - Simple application that creates multiple threads that do some work.&lt;/div&gt;&lt;div&gt;INSCOUNT_TOOL&amp;nbsp; &amp;nbsp; &amp;nbsp; &amp;nbsp; &amp;nbsp;- Basic instruction counting tool, essentially the Pintool equivalent of &quot;hello world&quot;.&lt;/div&gt;&lt;div&gt;CHECKAVX&amp;nbsp; &amp;nbsp; &amp;nbsp; &amp;nbsp; &amp;nbsp; &amp;nbsp; &amp;nbsp; - Small program which checks the hardware for avx support.&lt;/div&gt;&lt;div&gt;CHECKAVX2&amp;nbsp; &amp;nbsp; &amp;nbsp; &amp;nbsp; &amp;nbsp; &amp;nbsp; &amp;nbsp;- Small program which checks the hardware for avx2 support.&lt;/div&gt;&lt;div&gt;CHECKTSX&amp;nbsp; &amp;nbsp; &amp;nbsp; &amp;nbsp; &amp;nbsp; &amp;nbsp; &amp;nbsp; - Small program which checks the hardware for tsx support.&lt;/div&gt;&lt;div&gt;CHECKAVX512F&amp;nbsp; &amp;nbsp; &amp;nbsp; &amp;nbsp; &amp;nbsp; - Small program which checks the hardware for avx512 foundation support.&lt;/div&gt;&lt;div&gt;CHECKAMX&amp;nbsp; &amp;nbsp; &amp;nbsp; &amp;nbsp; &amp;nbsp; &amp;nbsp; &amp;nbsp; - Small program which checks the hardware and OS for amx support.&lt;/div&gt;&lt;div&gt;CHECKMOVDIR64B&amp;nbsp; &amp;nbsp; &amp;nbsp; &amp;nbsp; - Small program which checks the hardware and OS for support of movdir64b instruction.&lt;/div&gt;&lt;div&gt;THREADLIB&amp;nbsp; &amp;nbsp; &amp;nbsp; &amp;nbsp; &amp;nbsp; &amp;nbsp; &amp;nbsp;- Thread utilities library used by applications.&lt;/div&gt;&lt;div&gt;SUPPORTS_AVX_OBJ&amp;nbsp; &amp;nbsp; &amp;nbsp; - Object file which contains a function for checking avx support. This is used by several files from&lt;/div&gt;&lt;div&gt;&amp;nbsp; &amp;nbsp; &amp;nbsp; &amp;nbsp; &amp;nbsp; &amp;nbsp; &amp;nbsp; &amp;nbsp; &amp;nbsp; &amp;nbsp; &amp;nbsp; &amp;nbsp; &amp;nbsp;a few different directories.&lt;/div&gt;&lt;div&gt;SUPPORTS_AVX2_OBJ&amp;nbsp; &amp;nbsp; &amp;nbsp;- Object file which contains a function for checking avx2 support.&lt;/div&gt;&lt;div&gt;SUPPORTS_AVX512F_OBJ&amp;nbsp; - Object file which contains a function for checking avx512 foundation support.&lt;/div&gt;&lt;div&gt;PYCOMPARE&amp;nbsp; &amp;nbsp; &amp;nbsp; &amp;nbsp; &amp;nbsp; &amp;nbsp; &amp;nbsp;- A comparison script written in python.&lt;/div&gt;" style="text;html=1;strokeColor=none;fillColor=none;align=left;verticalAlign=middle;whiteSpace=wrap;rounded=0;fontFamily=Courier New;fontColor=#000000;" parent="1" vertex="1">
          <mxGeometry x="-1055" y="1895" width="890" height="340" as="geometry" />
        </mxCell>
        <mxCell id="MGOL-zu5bAfadH5uUNT9-38" value="None" style="rounded=0;whiteSpace=wrap;html=1;fontFamily=Courier New;fontColor=#000000;strokeWidth=1;fillColor=#FFFFFF;" parent="1" vertex="1">
          <mxGeometry x="-160" y="390" width="900" height="1490" as="geometry" />
        </mxCell>
        <mxCell id="MGOL-zu5bAfadH5uUNT9-40" value="&lt;div&gt;&amp;nbsp;all&amp;nbsp; &amp;nbsp;- Rule for building all the binaries specified in a per-directory makefile.rules file. The make program uses the&lt;/div&gt;&lt;div&gt;&amp;nbsp; &amp;nbsp; &amp;nbsp; &amp;nbsp; &amp;nbsp;first rule not preceded by a period &quot;.&quot; as the default target. Since we want the &quot;all&quot; target to be the default,&lt;/div&gt;&lt;div&gt;&amp;nbsp; &amp;nbsp; &amp;nbsp; &amp;nbsp; &amp;nbsp;it must be specified here (before the per-directory makefile.rules file is called). All the other common make&lt;/div&gt;&lt;div&gt;&amp;nbsp; &amp;nbsp; &amp;nbsp; &amp;nbsp; &amp;nbsp;targets are defined in makefile.default.rules.&lt;/div&gt;" style="text;html=1;strokeColor=none;fillColor=none;align=left;verticalAlign=middle;whiteSpace=wrap;rounded=0;fontFamily=Courier New;fontColor=#000000;" parent="1" vertex="1">
          <mxGeometry x="-155" y="2029" width="880" height="72" as="geometry" />
        </mxCell>
        <mxCell id="MGOL-zu5bAfadH5uUNT9-43" value="" style="rounded=0;whiteSpace=wrap;html=1;fontFamily=Courier New;fontColor=#000000;strokeWidth=1;fillColor=#F2F2F2;dashed=1;" parent="1" vertex="1">
          <mxGeometry x="-1060" y="2350" width="900" height="430" as="geometry" />
        </mxCell>
        <mxCell id="MGOL-zu5bAfadH5uUNT9-45" value="" style="rounded=0;whiteSpace=wrap;html=1;fontFamily=Courier New;fontColor=#000000;strokeWidth=1;fillColor=#F2F2F2;dashed=1;" parent="1" vertex="1">
          <mxGeometry x="-160" y="2350" width="900" height="430" as="geometry" />
        </mxCell>
        <mxCell id="MGOL-zu5bAfadH5uUNT9-46" value="&lt;div&gt;dir&amp;nbsp; &amp;nbsp; &amp;nbsp; &amp;nbsp; &amp;nbsp; &amp;nbsp;- Rule for creating the output directory. Depends on the value of the TARGET variable.&lt;/div&gt;&lt;div&gt;obj-&amp;lt;arch&amp;gt;&amp;nbsp; &amp;nbsp; - Rule for building an output directory for a specific architecture.&lt;/div&gt;&lt;div&gt;tools&amp;nbsp; &amp;nbsp; &amp;nbsp; &amp;nbsp; &amp;nbsp;- Builds all the tools in the directory.&lt;/div&gt;&lt;div&gt;apps&amp;nbsp; &amp;nbsp; &amp;nbsp; &amp;nbsp; &amp;nbsp; - Builds all the applications in the directory.&lt;/div&gt;&lt;div&gt;objects&amp;nbsp; &amp;nbsp; &amp;nbsp; &amp;nbsp;- Builds all the objects which were explicitly specified in the directory.&lt;/div&gt;&lt;div&gt;dlls&amp;nbsp; &amp;nbsp; &amp;nbsp; &amp;nbsp; &amp;nbsp; - Builds all the dlls in the directory.&lt;/div&gt;&lt;div&gt;libs&amp;nbsp; &amp;nbsp; &amp;nbsp; &amp;nbsp; &amp;nbsp; - Builds all the libraries (archives) in the directory.&lt;/div&gt;&lt;div&gt;avxcheck&amp;nbsp; &amp;nbsp; &amp;nbsp; - Builds a program which checks for avx support.&lt;/div&gt;&lt;div&gt;avx2check&amp;nbsp; &amp;nbsp; &amp;nbsp;- Builds a program which checks for avx2 support.&lt;/div&gt;&lt;div&gt;tsxcheck&amp;nbsp; &amp;nbsp; &amp;nbsp; - Builds a program which checks for tsx support.&lt;/div&gt;&lt;div&gt;avx512fcheck&amp;nbsp; - Builds a program which checks for avx512f support.&lt;/div&gt;&lt;div&gt;amxcheck&amp;nbsp; &amp;nbsp; &amp;nbsp; - Builds a program which checks for amx support.&lt;/div&gt;&lt;div&gt;install&amp;nbsp; &amp;nbsp; &amp;nbsp; &amp;nbsp;- Builds everything in the directory and runs the install script where applicable.&lt;/div&gt;&lt;div&gt;test&amp;nbsp; &amp;nbsp; &amp;nbsp; &amp;nbsp; &amp;nbsp; - Runs all the tests in the directory.&lt;/div&gt;&lt;div&gt;sanity&amp;nbsp; &amp;nbsp; &amp;nbsp; &amp;nbsp; - Runs the sanity subset of tests in the directory.&lt;/div&gt;&lt;div&gt;serial&amp;nbsp; &amp;nbsp; &amp;nbsp; &amp;nbsp; - Runs the subset of tests that should run serially. This must be run with make -j1&lt;/div&gt;&lt;div&gt;clean&amp;nbsp; &amp;nbsp; &amp;nbsp; &amp;nbsp; &amp;nbsp;- Cleanup.&lt;/div&gt;&lt;div&gt;&lt;br&gt;&lt;/div&gt;&lt;div&gt;$(OBJDIR)%$(PINTOOL_SUFFIX) - Default rule for building tools.&lt;/div&gt;&lt;div&gt;&amp;nbsp; &amp;nbsp; &amp;nbsp; &amp;nbsp; &amp;nbsp; &amp;nbsp; &amp;nbsp; &amp;nbsp; &amp;nbsp; &amp;nbsp; &amp;nbsp; &amp;nbsp; &amp;nbsp; &amp;nbsp; &amp;nbsp; Example: make obj-intel64/mytool.so&lt;/div&gt;&lt;div&gt;&lt;br&gt;&lt;/div&gt;&lt;div&gt;$(OBJDIR)%&amp;nbsp; &amp;nbsp; &amp;nbsp; &amp;nbsp; &amp;nbsp; &amp;nbsp; &amp;nbsp; &amp;nbsp; &amp;nbsp; - Default rule for building applications.&lt;/div&gt;&lt;div&gt;&amp;nbsp; &amp;nbsp; &amp;nbsp; &amp;nbsp; &amp;nbsp; &amp;nbsp; &amp;nbsp; &amp;nbsp; &amp;nbsp; &amp;nbsp; &amp;nbsp; &amp;nbsp; &amp;nbsp; &amp;nbsp; &amp;nbsp; Example: make obj-intel64/myapp&lt;/div&gt;&lt;div&gt;&lt;br&gt;&lt;/div&gt;&lt;div&gt;%.test&amp;nbsp; &amp;nbsp; &amp;nbsp; &amp;nbsp; &amp;nbsp; &amp;nbsp; &amp;nbsp; &amp;nbsp; &amp;nbsp; &amp;nbsp; &amp;nbsp; - Rule for running the default test template.&lt;/div&gt;&lt;div&gt;&amp;nbsp; &amp;nbsp; &amp;nbsp; &amp;nbsp; &amp;nbsp; &amp;nbsp; &amp;nbsp; &amp;nbsp; &amp;nbsp; &amp;nbsp; &amp;nbsp; &amp;nbsp; &amp;nbsp; &amp;nbsp; &amp;nbsp; Example: make mytest.test&lt;/div&gt;" style="text;html=1;strokeColor=none;fillColor=none;align=left;verticalAlign=middle;whiteSpace=wrap;rounded=0;fontFamily=Courier New;fontColor=#000000;" parent="1" vertex="1">
          <mxGeometry x="-140" y="2370" width="750" height="390" as="geometry" />
        </mxCell>
        <mxCell id="MGOL-zu5bAfadH5uUNT9-47" value="&lt;div&gt;## For reference only, it does not represent the actual code.&lt;/div&gt;&lt;div&gt;## https://www.gnu.org/software/make/manual/html_node/Text-Functions.html&lt;/div&gt;&lt;div&gt;&lt;br&gt;&lt;/div&gt;&lt;div&gt;SERIAL&amp;nbsp; &amp;nbsp;- SERIAL_SUBSET:&amp;nbsp; &amp;nbsp;% = %.wrap&lt;/div&gt;&lt;div&gt;&lt;br&gt;&lt;/div&gt;&lt;div&gt;TESTS&amp;nbsp; &amp;nbsp; - TEST_TOOL_ROOTS: % = %.wrap&amp;nbsp; &amp;nbsp; &amp;nbsp; &amp;nbsp; &amp;nbsp; &amp;nbsp; &amp;nbsp; &amp;nbsp; &amp;nbsp; &amp;nbsp; &amp;nbsp; &amp;nbsp; &amp;nbsp; &amp;nbsp; &amp;nbsp; &amp;nbsp;TEST_ROOTS: % = %.wrap&lt;/div&gt;&lt;div&gt;TESTS&amp;nbsp; &amp;nbsp; - filter-out $(SERIAL) , $(TESTS)&lt;/div&gt;&lt;div&gt;&lt;br&gt;&lt;/div&gt;&lt;div&gt;SANITY&amp;nbsp; &amp;nbsp;- SANITY_SUBSET:&amp;nbsp; &amp;nbsp;% = %.wrap&lt;/div&gt;&lt;div&gt;SANITY&amp;nbsp; &amp;nbsp;- filter-out $(SERIAL) , $(SANITY)&lt;/div&gt;&lt;div&gt;&lt;br&gt;&lt;/div&gt;&lt;div&gt;TOOLS&amp;nbsp; &amp;nbsp; - TEST_TOOL_ROOTS: % = $(OBJDIR)%$(PINTOOL_SUFFIX)&amp;nbsp; &amp;nbsp; &amp;nbsp; &amp;nbsp; &amp;nbsp; TOOL_ROOTS: % = $(OBJDIR)%$(PINTOOL_SUFFIX)&lt;/div&gt;&lt;div&gt;SA_TOOLS - SA_TOOL_ROOTS:&amp;nbsp; &amp;nbsp;% = $(OBJDIR)%$(SATOOL_SUFFIX)&amp;nbsp; &amp;nbsp; &amp;nbsp; &amp;nbsp; &amp;nbsp;&amp;nbsp;&lt;/div&gt;&lt;div&gt;APPS&amp;nbsp; &amp;nbsp; &amp;nbsp;- APP_ROOTS:&amp;nbsp; &amp;nbsp; &amp;nbsp; &amp;nbsp;% = $(OBJDIR)%$(EXE_SUFFIX)&amp;nbsp; &amp;nbsp; &amp;nbsp; &amp;nbsp; &amp;nbsp; &amp;nbsp; &amp;nbsp;&lt;/div&gt;&lt;div&gt;OBJECTS&amp;nbsp; - OBJECT_ROOTS:&amp;nbsp; &amp;nbsp; % = $(OBJDIR)%$(OBJ_SUFFIX)&amp;nbsp; &amp;nbsp; &amp;nbsp; &amp;nbsp; &amp;nbsp; &amp;nbsp; &amp;nbsp;&lt;/div&gt;&lt;div&gt;DLLS&amp;nbsp; &amp;nbsp; &amp;nbsp;- DLL_ROOTS:&amp;nbsp; &amp;nbsp; &amp;nbsp; &amp;nbsp;% = $(OBJDIR)$(DLL_PREFIX)%$(DLL_SUFFIX)&lt;/div&gt;&lt;div&gt;LIBS&amp;nbsp; &amp;nbsp; &amp;nbsp;- LIB_ROOTS:&amp;nbsp; &amp;nbsp; &amp;nbsp; &amp;nbsp;% = $(OBJDIR)%$(LIB_SUFFIX)&amp;nbsp; &amp;nbsp; &amp;nbsp; &amp;nbsp; &amp;nbsp; &amp;nbsp; &amp;nbsp;&lt;/div&gt;" style="text;html=1;strokeColor=none;fillColor=none;align=left;verticalAlign=middle;whiteSpace=wrap;rounded=0;fontFamily=Courier New;fontColor=#000000;" parent="1" vertex="1">
          <mxGeometry x="-1040" y="2430" width="820" height="270" as="geometry" />
        </mxCell>
        <mxCell id="MGOL-zu5bAfadH5uUNT9-48" value="" style="rounded=0;whiteSpace=wrap;html=1;fontFamily=Courier New;fontColor=#000000;strokeWidth=1;fillColor=#B9E0A5;" parent="1" vertex="1">
          <mxGeometry x="-1060" y="2250" width="900" height="100" as="geometry" />
        </mxCell>
        <mxCell id="MGOL-zu5bAfadH5uUNT9-49" value="" style="rounded=0;whiteSpace=wrap;html=1;fontFamily=Courier New;fontColor=#000000;strokeWidth=1;fillColor=#B9E0A5;" parent="1" vertex="1">
          <mxGeometry x="-160" y="2250" width="900" height="100" as="geometry" />
        </mxCell>
        <mxCell id="MGOL-zu5bAfadH5uUNT9-51" value="" style="shape=curlyBracket;whiteSpace=wrap;html=1;rounded=1;fontFamily=Courier New;fontColor=#000000;strokeWidth=1;fillColor=#DBDBDB;" parent="1" vertex="1">
          <mxGeometry x="-1120" y="1890" width="40" height="350" as="geometry" />
        </mxCell>
        <mxCell id="MGOL-zu5bAfadH5uUNT9-52" value="" style="shape=curlyBracket;whiteSpace=wrap;html=1;rounded=1;fontFamily=Courier New;fontColor=#000000;strokeWidth=1;fillColor=#DBDBDB;" parent="1" vertex="1">
          <mxGeometry x="-1120" y="2270" width="40" height="70" as="geometry" />
        </mxCell>
        <mxCell id="MGOL-zu5bAfadH5uUNT9-53" value="" style="shape=curlyBracket;whiteSpace=wrap;html=1;rounded=1;fontFamily=Courier New;fontColor=#000000;strokeWidth=1;fillColor=#DBDBDB;" parent="1" vertex="1">
          <mxGeometry x="-1120" y="2360" width="40" height="410" as="geometry" />
        </mxCell>
        <mxCell id="MGOL-zu5bAfadH5uUNT9-56" value="" style="shape=curlyBracket;whiteSpace=wrap;html=1;rounded=1;fontFamily=Courier New;fontColor=#000000;strokeWidth=1;fillColor=#DBDBDB;" parent="1" vertex="1">
          <mxGeometry x="-1120" y="400" width="40" height="1468" as="geometry" />
        </mxCell>
        <mxCell id="MGOL-zu5bAfadH5uUNT9-57" value="" style="shape=curlyBracket;whiteSpace=wrap;html=1;rounded=1;fontFamily=Courier New;fontColor=#000000;strokeWidth=1;fillColor=#DBDBDB;" parent="1" vertex="1">
          <mxGeometry x="-1120" y="-180" width="40" height="560" as="geometry" />
        </mxCell>
        <mxCell id="MGOL-zu5bAfadH5uUNT9-58" value="" style="shape=curlyBracket;whiteSpace=wrap;html=1;rounded=1;fontFamily=Courier New;fontColor=#000000;strokeWidth=1;fillColor=#DBDBDB;" parent="1" vertex="1">
          <mxGeometry x="-1120" y="-270" width="40" height="70" as="geometry" />
        </mxCell>
        <mxCell id="MGOL-zu5bAfadH5uUNT9-59" value="" style="shape=curlyBracket;whiteSpace=wrap;html=1;rounded=1;fontFamily=Courier New;fontColor=#000000;strokeWidth=1;fillColor=#DBDBDB;" parent="1" vertex="1">
          <mxGeometry x="-1120" y="-360" width="40" height="72.5" as="geometry" />
        </mxCell>
        <mxCell id="MGOL-zu5bAfadH5uUNT9-60" value="" style="shape=curlyBracket;whiteSpace=wrap;html=1;rounded=1;fontFamily=Courier New;fontColor=#000000;strokeWidth=1;fillColor=#DBDBDB;direction=south;" parent="1" vertex="1">
          <mxGeometry x="-1050" y="-420" width="880" height="40" as="geometry" />
        </mxCell>
        <mxCell id="MGOL-zu5bAfadH5uUNT9-61" value="" style="shape=curlyBracket;whiteSpace=wrap;html=1;rounded=1;fontFamily=Courier New;fontColor=#000000;strokeWidth=1;fillColor=#DBDBDB;direction=south;" parent="1" vertex="1">
          <mxGeometry x="-145" y="-420" width="870" height="40" as="geometry" />
        </mxCell>
        <mxCell id="MGOL-zu5bAfadH5uUNT9-62" value="&lt;font size=&quot;1&quot;&gt;&lt;b style=&quot;font-size: 20px&quot;&gt;variable&amp;nbsp;definition&lt;/b&gt;&lt;/font&gt;" style="text;html=1;strokeColor=none;fillColor=none;align=center;verticalAlign=middle;whiteSpace=wrap;rounded=0;fontFamily=Courier New;fontColor=#000000;" parent="1" vertex="1">
          <mxGeometry x="-742.5" y="-460" width="265" height="30" as="geometry" />
        </mxCell>
        <mxCell id="MGOL-zu5bAfadH5uUNT9-63" value="&lt;font size=&quot;1&quot;&gt;&lt;b style=&quot;font-size: 20px&quot;&gt;target definition&lt;/b&gt;&lt;/font&gt;" style="text;html=1;strokeColor=none;fillColor=none;align=center;verticalAlign=middle;whiteSpace=wrap;rounded=0;fontFamily=Courier New;fontColor=#000000;" parent="1" vertex="1">
          <mxGeometry x="182.5" y="-460" width="225" height="30" as="geometry" />
        </mxCell>
        <mxCell id="MGOL-zu5bAfadH5uUNT9-64" value="&lt;font size=&quot;1&quot;&gt;&lt;b style=&quot;font-size: 20px&quot;&gt;Define in&lt;br&gt;PinTool&#39;s makefile&lt;br&gt;&lt;/b&gt;&lt;/font&gt;" style="text;html=1;strokeColor=none;fillColor=none;align=center;verticalAlign=middle;whiteSpace=wrap;rounded=0;fontFamily=Courier New;fontColor=#000000;" parent="1" vertex="1">
          <mxGeometry x="-1360" y="-370" width="240" height="70" as="geometry" />
        </mxCell>
        <mxCell id="MGOL-zu5bAfadH5uUNT9-65" value="&lt;b style=&quot;color: rgb(0 , 0 , 0) ; font-family: &amp;#34;courier new&amp;#34; ; font-style: normal ; letter-spacing: normal ; text-indent: 0px ; text-transform: none ; word-spacing: 0px ; background-color: rgb(248 , 249 , 250) ; font-size: 20px&quot;&gt;Include from&lt;br&gt;makefile.config&lt;/b&gt;" style="text;whiteSpace=wrap;html=1;fontSize=20;fontFamily=Courier New;fontColor=#000000;align=center;" parent="1" vertex="1">
          <mxGeometry x="-1360" y="-270" width="240" height="60" as="geometry" />
        </mxCell>
        <mxCell id="MGOL-zu5bAfadH5uUNT9-66" value="&lt;span style=&quot;text-indent: 0px ; background-color: rgb(248 , 249 , 250)&quot;&gt;&lt;b style=&quot;color: rgb(0 , 0 , 0) ; font-family: &amp;#34;courier new&amp;#34; ; font-size: 20px ; font-style: normal ; letter-spacing: normal ; text-transform: none ; word-spacing: 0px&quot;&gt;Include from&lt;/b&gt;&lt;br&gt;&lt;font face=&quot;courier new&quot;&gt;&lt;b&gt;win.vars/unix.vars&lt;/b&gt;&lt;/font&gt;&lt;br&gt;&lt;/span&gt;" style="text;whiteSpace=wrap;html=1;fontSize=20;fontFamily=Courier New;fontColor=#000000;align=center;" parent="1" vertex="1">
          <mxGeometry x="-1370" y="60" width="260" height="60" as="geometry" />
        </mxCell>
        <mxCell id="MGOL-zu5bAfadH5uUNT9-67" value="&lt;span style=&quot;text-indent: 0px ; background-color: rgb(248 , 249 , 250)&quot;&gt;&lt;b style=&quot;color: rgb(0 , 0 , 0) ; font-family: &amp;#34;courier new&amp;#34; ; font-size: 20px ; font-style: normal ; letter-spacing: normal ; text-transform: none ; word-spacing: 0px&quot;&gt;Include from&lt;/b&gt;&lt;br&gt;&lt;font face=&quot;courier new&quot;&gt;&lt;b&gt;makefile.win.config /&lt;br&gt;makefile.unix.config&lt;/b&gt;&lt;/font&gt;&lt;br&gt;&lt;/span&gt;" style="text;whiteSpace=wrap;html=1;fontSize=20;fontFamily=Courier New;fontColor=#000000;align=center;" parent="1" vertex="1">
          <mxGeometry x="-1395" y="1100" width="270" height="85.5" as="geometry" />
        </mxCell>
        <mxCell id="MGOL-zu5bAfadH5uUNT9-68" value="&lt;b style=&quot;color: rgb(0 , 0 , 0) ; font-family: &amp;#34;courier new&amp;#34; ; font-style: normal ; letter-spacing: normal ; text-indent: 0px ; text-transform: none ; word-spacing: 0px ; background-color: rgb(248 , 249 , 250) ; font-size: 20px&quot;&gt;Include from&lt;br&gt;makefile.config&lt;/b&gt;" style="text;whiteSpace=wrap;html=1;fontSize=20;fontFamily=Courier New;fontColor=#000000;align=center;" parent="1" vertex="1">
          <mxGeometry x="-1370" y="2035" width="240" height="60" as="geometry" />
        </mxCell>
        <mxCell id="MGOL-zu5bAfadH5uUNT9-69" value="&lt;font size=&quot;1&quot;&gt;&lt;b style=&quot;font-size: 20px&quot;&gt;Define in&lt;br&gt;PinTool&#39;s makefile&lt;br&gt;&lt;/b&gt;&lt;/font&gt;" style="text;html=1;strokeColor=none;fillColor=none;align=center;verticalAlign=middle;whiteSpace=wrap;rounded=0;fontFamily=Courier New;fontColor=#000000;" parent="1" vertex="1">
          <mxGeometry x="-1380" y="2268" width="240" height="70" as="geometry" />
        </mxCell>
        <mxCell id="MGOL-zu5bAfadH5uUNT9-70" value="&lt;b style=&quot;font-size: 20px&quot;&gt;Include from&lt;/b&gt;&lt;br&gt;&lt;span style=&quot;font-size: 20px&quot;&gt;&lt;b&gt;makefile.default.rules&lt;br&gt;(Optional)&lt;br&gt;&lt;/b&gt;&lt;/span&gt;" style="text;html=1;strokeColor=none;fillColor=none;align=center;verticalAlign=middle;whiteSpace=wrap;rounded=0;fontFamily=Courier New;fontColor=#000000;" parent="1" vertex="1">
          <mxGeometry x="-1400" y="2530" width="280" height="70" as="geometry" />
        </mxCell>
        <mxCell id="sCatzhIfRB6n8IJ6TIi--2" value="&lt;font face=&quot;Courier New&quot; style=&quot;font-size: 50px&quot;&gt;&lt;b&gt;PinTool makefile&lt;br&gt;How-To&lt;/b&gt;&lt;/font&gt;" style="text;html=1;strokeColor=none;fillColor=#67AB9F;align=center;verticalAlign=middle;whiteSpace=wrap;rounded=0;" vertex="1" parent="1">
          <mxGeometry x="-477.5" y="-734" width="610" height="150" as="geometry" />
        </mxCell>
      </root>
    </mxGraphModel>
  </diagram>
</mxfile>
